<?xml version="1.0" standalone="no"?>
<!DOCTYPE svg PUBLIC "-//W3C//DTD SVG 20010904//EN"
 "http://www.w3.org/TR/2001/REC-SVG-20010904/DTD/svg10.dtd">
<svg version="1.0" xmlns="http://www.w3.org/2000/svg"
 width="928.000000pt" height="928.000000pt" viewBox="0 0 928.000000 928.000000"
 preserveAspectRatio="xMidYMid meet">
<metadata>
Created by potrace 1.11, written by Peter Selinger 2001-2013
</metadata>
<g transform="translate(0.000000,928.000000) scale(0.100000,-0.100000)"
fill="#000000" stroke="none">
<path d="M7299 8958 c-30 -24 -59 -47 -66 -53 -6 -5 -26 -21 -44 -35 -18 -14
-44 -35 -58 -47 -15 -13 -30 -26 -36 -30 -5 -5 -30 -24 -55 -43 -25 -19 -50
-39 -56 -45 -6 -5 -25 -21 -43 -35 -18 -14 -44 -35 -59 -48 -15 -12 -31 -26
-37 -30 -34 -26 -321 -257 -325 -262 -3 -3 -34 -28 -70 -55 -36 -28 -72 -57
-81 -65 -9 -8 -50 -42 -92 -75 -42 -33 -77 -63 -77 -67 0 -5 -6 -8 -13 -8 -7
0 -20 -8 -28 -17 -9 -10 -29 -27 -44 -38 -16 -11 -33 -25 -39 -30 -6 -6 -46
-39 -89 -73 -42 -34 -88 -72 -101 -83 -13 -12 -27 -21 -30 -20 -3 0 -16 -9
-29 -22 -44 -42 -89 -77 -98 -77 -5 0 -9 -4 -9 -8 0 -5 -18 -21 -41 -38 -22
-16 -48 -36 -57 -44 -9 -9 -42 -36 -72 -60 -30 -25 -61 -49 -67 -55 -7 -5 -25
-19 -39 -30 -15 -11 -38 -30 -51 -42 -13 -13 -26 -23 -29 -23 -3 0 -11 -6 -18
-12 -7 -7 -30 -26 -51 -43 -20 -16 -54 -43 -74 -60 -21 -16 -54 -43 -75 -60
-21 -16 -48 -38 -60 -49 -11 -10 -37 -30 -56 -45 -19 -14 -37 -28 -40 -31 -3
-4 -23 -19 -45 -36 -22 -16 -44 -34 -50 -40 -5 -6 -35 -30 -65 -55 -30 -24
-60 -48 -66 -54 -6 -5 -22 -17 -34 -25 -13 -8 -30 -22 -39 -30 -13 -13 -58
-49 -126 -103 -5 -4 -21 -17 -35 -28 -14 -11 -40 -33 -59 -47 -19 -15 -48 -39
-65 -53 -26 -22 -233 -188 -456 -367 -30 -24 -72 -58 -93 -76 -21 -17 -43 -33
-48 -34 -10 -4 -102 65 -207 156 -15 12 -57 46 -94 74 -38 29 -68 56 -68 60 0
4 -6 8 -14 8 -8 0 -21 8 -28 18 -7 10 -20 23 -30 28 -9 5 -32 24 -52 42 -19
17 -38 32 -41 32 -3 0 -18 11 -33 24 -27 24 -68 58 -87 73 -26 20 -161 129
-171 138 -6 6 -26 21 -44 35 -32 24 -178 142 -224 180 -11 10 -73 59 -136 109
-63 51 -124 99 -135 109 -39 34 -367 297 -382 307 -9 6 -28 21 -44 35 -15 14
-34 30 -41 35 -7 6 -20 16 -29 23 -14 10 -27 4 -85 -43 -38 -30 -80 -64 -94
-75 -48 -38 -93 -75 -109 -90 -9 -8 -35 -28 -56 -45 -47 -34 -51 -38 -87 -68
-83 -70 -134 -111 -213 -172 -41 -33 -108 -86 -140 -113 -11 -9 -54 -43 -95
-76 -41 -33 -77 -62 -80 -66 -3 -3 -23 -19 -45 -35 -22 -17 -42 -33 -45 -36
-3 -3 -57 -47 -120 -97 -63 -50 -128 -103 -145 -116 -16 -13 -70 -57 -120 -98
-49 -40 -135 -109 -190 -153 -55 -44 -102 -82 -105 -85 -3 -3 -21 -17 -42 -32
l-36 -28 0 -153 c1 -85 -2 -159 -6 -166 -4 -6 -4 -11 1 -11 9 0 9 -201 -1
-225 -3 -8 -2 -15 2 -15 8 0 7 -202 -1 -224 -4 -9 -3 -16 1 -16 8 0 7 -203 -2
-225 -3 -8 -2 -15 2 -15 8 0 7 -202 -1 -224 -4 -9 -3 -16 1 -16 8 0 7 -203 -2
-225 -3 -8 -2 -15 2 -15 8 0 7 -202 -1 -224 -4 -9 -3 -16 1 -16 8 0 7 -203 -2
-225 -3 -8 -2 -15 2 -15 8 0 7 -202 -1 -224 -4 -9 -3 -16 1 -16 8 0 7 -203 -2
-225 -3 -8 -2 -15 2 -15 8 0 7 -202 -1 -224 -4 -9 -3 -16 1 -16 4 0 6 -48 5
-107 -1 -120 -5 -112 87 -182 19 -14 37 -28 40 -31 3 -4 62 -52 131 -107 69
-56 133 -109 142 -118 10 -9 17 -14 17 -11 0 3 8 -2 18 -11 11 -10 28 -25 38
-33 18 -14 112 -91 141 -115 13 -11 45 -37 109 -87 129 -103 286 -230 300
-243 6 -5 26 -21 44 -35 19 -14 41 -32 50 -40 8 -8 36 -30 60 -49 25 -19 50
-39 55 -46 6 -6 26 -22 45 -35 19 -13 44 -33 55 -43 11 -11 36 -31 55 -46 19
-14 44 -34 55 -43 11 -9 74 -61 140 -114 66 -53 121 -100 123 -105 2 -5 9 -9
15 -9 7 0 29 -16 49 -35 20 -19 41 -35 47 -35 6 0 11 -4 11 -8 0 -4 21 -24 48
-44 26 -20 56 -45 67 -55 11 -10 38 -31 60 -47 22 -17 42 -33 45 -36 3 -3 25
-21 50 -40 24 -19 52 -42 62 -50 24 -21 42 -36 112 -92 33 -27 79 -63 100 -81
43 -34 115 -92 131 -105 77 -60 284 -229 298 -243 10 -11 21 -19 25 -19 4 0
18 -10 32 -22 14 -13 52 -45 85 -71 33 -26 69 -56 80 -65 11 -9 54 -43 95 -76
41 -33 77 -62 80 -65 3 -4 21 -18 40 -33 19 -14 45 -35 57 -47 12 -12 27 -21
32 -21 6 0 16 -9 23 -20 7 -11 17 -20 22 -20 5 0 16 -8 25 -18 9 -10 36 -33
61 -52 25 -19 47 -37 50 -40 3 -3 37 -31 77 -63 69 -55 91 -68 78 -47 -3 5 0
7 8 5 7 -3 28 8 45 25 18 16 36 30 41 30 5 0 11 4 13 8 2 4 106 91 233 192
126 102 241 195 255 208 14 12 28 22 31 22 3 0 20 12 36 27 17 16 45 40 64 55
19 15 70 55 114 90 44 34 86 69 93 76 8 7 30 25 50 40 21 15 39 29 42 33 3 3
41 34 85 69 44 34 82 66 83 71 2 5 10 9 17 9 7 0 15 4 17 8 2 4 37 35 78 67
41 33 89 72 105 87 17 16 33 28 37 28 4 0 13 6 20 13 12 11 104 87 138 114 8
6 33 27 56 45 22 18 57 47 78 63 22 17 123 98 225 180 102 83 195 157 207 165
27 19 113 90 136 112 10 10 22 18 27 18 5 0 11 3 13 8 3 6 61 55 122 102 11 8
30 25 43 37 13 12 23 20 23 17 0 -4 45 33 76 63 7 7 17 13 22 13 6 0 12 4 14
8 5 13 219 182 231 182 6 0 8 3 4 6 -3 3 24 29 61 57 83 64 89 68 110 87 10 8
38 31 62 50 25 19 47 37 50 40 3 3 70 57 150 120 163 130 187 149 209 170 9 8
32 26 51 40 19 13 37 27 40 30 4 4 93 76 173 140 11 8 24 20 31 25 9 8 97 78
164 130 7 5 21 17 30 26 9 8 37 30 62 49 25 19 47 37 50 40 3 3 73 59 155 125
83 66 152 123 153 127 2 4 10 8 18 8 9 0 12 5 9 10 -3 5 0 10 9 10 8 0 16 3
18 8 2 4 59 51 128 106 69 54 130 104 135 111 6 6 15 14 21 16 7 2 31 21 55
41 24 21 107 88 184 149 77 62 154 124 171 138 16 14 46 37 65 51 18 14 48 39
64 55 l30 30 0 1472 -1 1473 -22 20 c-11 11 -25 20 -29 20 -5 0 -14 9 -21 20
-7 11 -17 20 -23 20 -7 0 -19 8 -28 18 -9 9 -38 35 -66 56 -27 22 -54 44 -60
50 -5 6 -26 23 -45 37 -19 15 -46 36 -60 48 -14 11 -30 24 -35 28 -20 15 -160
128 -171 138 -7 6 -26 21 -44 35 -18 14 -37 30 -44 35 -6 6 -49 41 -96 78 -47
37 -97 79 -111 92 -14 14 -29 25 -32 25 -4 0 -15 8 -25 18 -23 21 -54 47 -112
92 -25 19 -51 40 -58 48 -8 7 -30 25 -50 40 -21 15 -39 29 -42 32 -3 3 -26 22
-52 43 -26 21 -53 43 -60 50 -7 7 -29 24 -48 38 -19 15 -45 35 -57 45 -37 33
-57 49 -98 79 -21 17 -47 37 -56 45 -9 8 -25 22 -35 30 -41 32 -180 144 -195
157 -14 12 -23 8 -70 -29z"/>
</g>
</svg>
